<?xml version="1.0" standalone="no"?>
<!DOCTYPE svg PUBLIC "-//W3C//DTD SVG 20010904//EN"
 "http://www.w3.org/TR/2001/REC-SVG-20010904/DTD/svg10.dtd">
<svg version="1.0" xmlns="http://www.w3.org/2000/svg"
 width="500.000000pt" height="500.000000pt" viewBox="0 0 500.000000 500.000000"
 preserveAspectRatio="xMidYMid meet">

<g transform="translate(0.000000,500.000000) scale(0.100000,-0.100000)"
fill="#000000" stroke="none">
<path d="M1709 3332 c-34 -17 -65 -44 -84 -71 l-30 -43 -3 -759 c-2 -733 -2
-760 17 -797 22 -43 63 -83 108 -106 29 -14 112 -16 783 -16 821 0 786 -2 848
60 71 71 67 15 70 825 2 558 0 741 -10 775 -15 57 -90 134 -144 149 -26 7
-279 11 -770 11 l-732 0 -53 -28z m1571 -32 c21 -11 51 -36 67 -57 l28 -36 0
-757 0 -756 -24 -36 c-13 -19 -40 -46 -59 -59 l-36 -24 -730 -3 c-509 -2 -742
0 -769 8 -20 6 -53 24 -72 41 -68 60 -66 32 -63 845 l3 730 25 38 c14 20 43
48 65 61 l40 25 743 0 c722 0 744 -1 782 -20z"/>
<path d="M2061 2676 c-50 -255 -91 -471 -91 -480 0 -10 9 -16 23 -17 12 0 52
-3 89 -7 76 -9 71 -14 84 86 4 29 11 55 15 58 5 3 34 2 64 -1 l55 -7 0 -78 0
-79 58 -6 c31 -3 72 -8 90 -11 l32 -5 -2 493 -3 493 -115 11 c-63 7 -136 12
-161 13 l-46 1 -92 -464z m239 39 l0 -255 -42 6 c-24 4 -45 8 -47 10 -2 1 15
110 38 241 23 132 41 242 41 246 0 4 2 7 5 7 3 0 5 -115 5 -255z"/>
<path d="M2500 2624 l0 -496 168 4 c156 3 170 5 210 27 32 19 49 39 70 80 l27
56 3 310 c4 359 -1 396 -56 454 -48 50 -100 61 -282 61 l-140 0 0 -496z m266
312 c18 -14 19 -29 19 -311 0 -285 -1 -297 -20 -311 -11 -8 -31 -14 -45 -12
l-25 3 -3 310 c-1 170 0 315 3 322 6 17 47 16 71 -1z"/>
<path d="M1920 1865 l0 -125 44 0 c68 0 76 14 76 129 0 62 -4 101 -12 109 -7
7 -34 12 -60 12 l-48 0 0 -125z m75 0 c0 -54 -4 -80 -12 -82 -10 -4 -13 17
-13 82 0 65 3 86 13 83 8 -3 12 -29 12 -83z"/>
<path d="M2070 1865 l0 -125 51 0 c47 0 50 2 47 23 -2 16 -11 23 -30 25 -24 3
-28 8 -28 33 0 24 4 29 25 29 33 0 35 37 3 42 -17 2 -23 10 -23 28 0 18 6 26
23 28 14 2 22 10 22 23 0 16 -7 19 -45 19 l-45 0 0 -125z"/>
<path d="M2180 1983 c0 -4 7 -55 15 -113 8 -58 15 -111 15 -117 0 -8 14 -13
34 -13 l33 0 12 108 c7 59 15 115 17 125 4 13 -1 17 -19 17 -23 0 -25 -4 -32
-77 -9 -87 -13 -85 -23 8 -6 56 -10 64 -29 67 -13 2 -23 0 -23 -5z"/>
<path d="M2330 1865 l0 -125 51 0 c47 0 50 2 47 23 -2 16 -11 23 -30 25 -24 3
-28 8 -28 33 0 24 4 29 25 29 33 0 35 37 3 42 -17 2 -23 10 -23 28 0 18 6 26
23 28 14 2 22 10 22 23 0 16 -7 19 -45 19 l-45 0 0 -125z"/>
<path d="M2450 1865 l0 -125 45 0 c38 0 45 3 45 20 0 15 -7 20 -25 20 l-25 0
0 105 c0 98 -1 105 -20 105 -19 0 -20 -7 -20 -125z"/>
<path d="M2577 1972 c-23 -26 -24 -177 -1 -210 19 -27 64 -29 87 -4 24 26 24
193 1 216 -21 22 -67 20 -87 -2z m53 -107 c0 -50 -4 -85 -10 -85 -6 0 -10 35
-10 85 0 50 4 85 10 85 6 0 10 -35 10 -85z"/>
<path d="M2710 1865 c0 -118 1 -125 20 -125 17 0 20 7 20 48 0 45 2 48 33 57
30 10 32 13 35 65 4 64 -10 80 -70 80 l-38 0 0 -125z m65 50 c0 -16 -6 -30
-12 -32 -9 -3 -13 7 -13 32 0 25 4 35 13 33 6 -3 12 -17 12 -33z"/>
<path d="M2840 1865 l0 -125 50 0 c47 0 50 2 50 25 0 20 -5 25 -25 25 -21 0
-25 5 -25 30 0 25 4 30 25 30 18 0 25 5 25 20 0 15 -7 20 -26 20 -22 0 -25 4
-22 28 2 19 9 28 26 30 14 2 22 10 22 23 0 16 -7 19 -50 19 l-50 0 0 -125z"/>
<path d="M2960 1865 l0 -125 25 0 c24 0 25 3 25 61 0 37 4 58 10 54 6 -3 10
-31 10 -61 0 -51 1 -54 25 -54 24 0 25 3 25 58 0 32 -5 63 -11 69 -8 8 -8 13
0 17 15 10 14 79 -1 94 -7 7 -34 12 -60 12 l-48 0 0 -125z m75 60 c0 -10 -6
-20 -12 -22 -8 -3 -13 5 -13 22 0 17 5 25 13 23 6 -3 12 -13 12 -23z"/>
</g>
</svg>
